<?xml version="1.0" encoding="utf-8"?>
<!-- Generator: Adobe Illustrator 19.0.0, SVG Export Plug-In . SVG Version: 6.00 Build 0)  -->
<svg version="1.0" id="Layer_1" xmlns="http://www.w3.org/2000/svg" xmlns:xlink="http://www.w3.org/1999/xlink" x="0px" y="0px"
	 width="191px" height="161px" viewBox="-174 217.3 191 161" style="enable-background:new -174 217.3 191 161;"
	 xml:space="preserve">
<style type="text/css">
	.st0{fill:#FFFFFF;}
</style>
<title>Ghost</title>
<g id="XMLID_4_">
	<path id="XMLID_102_" class="st0" d="M-122.2,236.3l28.6,72.1l28.8-72.1h33.5l-50.7,118.6h-23.9l-49.9-118.6H-122.2z"/>
	<path id="XMLID_104_" class="st0" d="M-35.2,326.6c3.6-3.6,7.9-5.3,13.1-5.3c5.1,0,9.5,1.8,13.1,5.3c3.6,3.6,5.4,7.9,5.4,13.1
		c0,5-1.8,9.4-5.4,13c-3.6,3.6-7.9,5.4-13.1,5.4c-5.1,0-9.5-1.8-13.1-5.4c-3.6-3.6-5.3-7.9-5.3-13
		C-40.5,334.5-38.8,330.2-35.2,326.6z"/>
</g>
</svg>
