<?xml version="1.0" encoding="utf-8"?>
<!-- Generator: Adobe Illustrator 19.0.0, SVG Export Plug-In . SVG Version: 6.00 Build 0)  -->
<svg version="1.1" id="Layer_1" xmlns="http://www.w3.org/2000/svg" xmlns:xlink="http://www.w3.org/1999/xlink" x="0px" y="0px"
	 width="493px" height="161px" viewBox="-174 217.3 493 161" style="enable-background:new -174 217.3 493 161;"
	 xml:space="preserve">
<style type="text/css">
	.st0{fill:#F6F8FA;}
</style>
<title>Ghost</title>
<g id="XMLID_551_">
	<path id="XMLID_563_" class="st0" d="M-141.2,250.6l23.8,59.8l23.9-59.8h27.8l-42,98.4h-19.8l-41.4-98.4H-141.2z"/>
	<path id="XMLID_561_" class="st0" d="M-21.8,250.6V349h-25.6v-98.4H-21.8z"/>
	<path id="XMLID_559_" class="st0" d="M32.5,250.6v76.7h30.7V349H6.9v-98.4H32.5z"/>
	<path id="XMLID_557_" class="st0" d="M89,250.6l23.8,59.8l23.9-59.8h27.8l-42,98.4h-19.8l-41.4-98.4H89z"/>
	<path id="XMLID_554_" class="st0" d="M231.4,331.9h-35.2l-6.8,17.1h-27.1l37.8-98.4H228l37.1,98.4h-27.3L231.4,331.9z M224.5,312.3
		L214,281h-0.3l-10.6,31.3H224.5z"/>
	<path id="XMLID_552_" class="st0" d="M288.3,325.5c3-3,6.6-4.4,10.8-4.4c4.3,0,7.9,1.5,10.8,4.4c3,3,4.4,6.6,4.4,10.8
		c0,4.2-1.5,7.8-4.4,10.8c-3,3-6.6,4.5-10.8,4.5c-4.3,0-7.9-1.5-10.8-4.5c-3-3-4.4-6.6-4.4-10.8
		C283.8,332.1,285.3,328.5,288.3,325.5z"/>
</g>
</svg>
