<svg enable-background="new -174 217.3 493 161" height="161" viewBox="-174 217.3 493 161" width="493" xmlns="http://www.w3.org/2000/svg"><g fill="#f6f8fa"><path d="m-141.2 250.6 23.8 59.8 23.9-59.8h27.8l-42 98.4h-19.8l-41.4-98.4z"/><path d="m-21.8 250.6v98.4h-25.6v-98.4z"/><path d="m32.5 250.6v76.7h30.7v21.7h-56.3v-98.4z"/><path d="m89 250.6 23.8 59.8 23.9-59.8h27.8l-42 98.4h-19.8l-41.4-98.4z"/><path d="m231.4 331.9h-35.2l-6.8 17.1h-27.1l37.8-98.4h27.9l37.1 98.4h-27.3zm-6.9-19.6-10.5-31.3h-.3l-10.6 31.3z"/><path d="m288.3 325.5c3-3 6.6-4.4 10.8-4.4 4.3 0 7.9 1.5 10.8 4.4 3 3 4.4 6.6 4.4 10.8s-1.5 7.8-4.4 10.8c-3 3-6.6 4.5-10.8 4.5-4.3 0-7.9-1.5-10.8-4.5-3-3-4.4-6.6-4.4-10.8-.1-4.2 1.4-7.8 4.4-10.8z"/></g></svg>